<svg xmlns="http://www.w3.org/2000/svg" id="Layer_1" version="1" viewBox="0 0 410 135"><style>.st0{fill-rule:evenodd;clip-rule:evenodd}.st0,.st1{fill:#fff}</style><path d="M36 118c-8-1-15-2-22-5h-1c-3-1-5-3-5-6L4 92l-1-5v-1l1-1h2l1 3c1 4 3 7 6 11 6 7 13 11 22 13 7 0 14-1 20-5 5-3 9-7 10-13 2-9-2-18-10-21l-18-8c-7-2-13-5-18-8s-9-7-11-12c-2-4-2-9-2-13 1-12 8-20 18-24s19-4 29-1l6 2h5l1-1 2 1v2l2 14 1 6v1l-1 1h-2l-1-3c-2-6-5-10-10-14-5-3-10-5-16-6-5-1-10-1-15 2-5 2-9 6-10 12s0 11 4 15c2 3 5 6 8 7l20 7c7 3 13 5 17 10 5 4 9 9 9 16 2 13-2 23-12 31-6 4-12 6-19 7l-6 1zM222 49l-1 5-2 4c-2 4-7 4-9 1l-2-5-9-28h8l4 13 4 16 1 1 1-1 4-11v-1l-5-16v-2h7l1 1 4 14 4 15 1 1h1v-2a2839 2839 0 0 0 10-29h2l-2 7-7 22-2 4c-2 4-7 4-9 0l-3-6-1-4v1zM329 60h-9l-8-17 3-1c3 0 4-2 5-5l-1-5c0-2-2-3-5-4h-5v32h-8V25h14l7 1c6 3 7 8 5 12l-5 5h-2l9 17zM168 89l-3 2-1-3c-3-3-7-4-11-3-3 1-4 3-5 5l-2 7c0 4 0 8 2 11 0 2 1 4 3 5 2 2 4 3 7 2 2 0 3-2 4-4l1-5v-5-1h6v31h-6v-16l-1 1c-5 3-10 3-15 0s-8-8-8-14c-1-4 0-8 2-12 3-4 6-7 11-8 6-1 11 0 14 4l2 3zM222 89l-3 2-1-2c-2-4-6-5-10-4-3 0-4 2-6 4l-1 7v11l3 6 7 2c2 0 4-2 5-4l1-4v-6-1h6v31h-6v-16h-1c-5 5-12 3-17 0-5-4-7-10-7-16 1-7 4-12 9-15s10-3 15-1c3 1 5 3 6 6zM107 61c-10 0-17-7-18-16-1-4 0-7 1-10 2-7 8-10 15-10 8 0 15 5 17 13v13c-2 6-8 10-15 10zM96 43l1 4 3 9c3 3 8 3 11 0l3-5 1-14-4-8c-3-3-8-3-11 0l-2 4-2 10zM146 26h8v2l-1 1h-6l-1 1v30h-7v-1-44-5c1-3 3-5 6-6h8l1 1c0 2 0 2-2 2h-3c-2 1-3 1-3 4v15zM89 83h7v22l1 4c1 3 3 4 6 5l2-1c3 0 5-2 6-6v-4-19l1-1c2 0 2 0 2 2v20l-1 6c-1 4-4 6-8 7l-8-1c-4-1-7-4-8-8v-4-21-1zM286 60h-7l-3-8-1-3h-11l-2 1-2 9-1 1h-3l2-5 7-25v-2c2-4 8-5 11-1l2 4 8 28v1zm-11-14h-1l-1-5-2-9-2-2-1 2h-1l-2 8-2 6h12zM366 26v2h-12c-3 0-3 1-3 4v8h11l1 1c0 2 0 2-2 2h-10v11c0 2 0 3 2 3h13v3h-19c-3-1-4-2-4-4v-4-22-1c1-2 2-3 4-3l2-1h16l1 1zM269 97v3h-12v12c0 1 0 2 2 2h13v3h-19c-2-1-3-1-3-3v-2-24-2c0-2 1-3 4-3h18v2h-8l-4 1c-2 0-3 0-3 2v8l1 1h11zM297 114h11c4-1 5-5 2-8l-4-3-7-5c-2-2-3-4-3-7 1-5 4-7 8-8l10-1 1 1h1v2h-5l-5 1c-3 1-4 4-2 6l4 3 7 5c6 3 5 13-1 16-3 1-6 2-9 1h-7l-1-1v-2zM180 60h-8v-1-29l-1-2h-6v-2h22v2h-7v32zM356 117h-7V86h-6l-1-1c0-3-1-2 2-2h20v2l-1 1h-5c-2 0-1-1-1 1v29l-1 1z" class="st0"/><path d="M392 8a17 17 0 0 1 0 34 17 17 0 0 1 0-34zm-15 17a14 14 0 1 0 29 0 14 14 0 0 0-29 0z" class="st1"/><path d="M395 27l3 6h-2l-4-6h-3v6h-3V17h7l2 1h2l1 3 1 1-1 2v1l-2 2h-1zm-6-2h4l1-1h1l1-1v-2-1h-1l-1-1h-5v6z" class="st1"/></svg>