<?xml version="1.0" encoding="utf-8"?>
<!-- Generator: Adobe Illustrator 22.1.0, SVG Export Plug-In . SVG Version: 6.00 Build 0)  -->
<svg version="1.1" id="Bold" xmlns="http://www.w3.org/2000/svg" xmlns:xlink="http://www.w3.org/1999/xlink" x="0px" y="0px"
	 viewBox="0 0 416 427" style="enable-background:new 0 0 416 427;" xml:space="preserve">
<style type="text/css">
	.st0{fill:#FFFFFF;}
</style>
<path class="st0" d="M207.6,420.1c118,0,196.4-82.9,196.4-199.8c0-13.4-1.4-23.7-3.3-34H207.6v70.3h116.1
	c-4.7,29.9-35.2,88.2-116.1,88.2c-69.7,0-126.7-57.8-126.7-129.2S137.8,86.3,207.6,86.3c39.9,0,66.4,17,81.5,31.5l55.5-53.3
	C308.8,31.1,262.8,11,207.6,11C94.5,11,3,102.5,3,215.6S94.5,420.1,207.6,420.1L207.6,420.1z"/>
</svg>
